<svg xmlns="http://www.w3.org/2000/svg" xmlns:xlink="http://www.w3.org/1999/xlink" width="1440" height="1040"><g transform="translate(0 0)"><path d="M0 0h1440v1040H0z" fill="#fff"/><path d="M0 0h288v58.37H0zM288 0h288v58.37H288zM576 0h288v58.37H576zM864 0h288v58.37H864zM1152 0h288v58.37h-288z" fill="#fcd1a5"/><path d="M0 58.37h288V1040H0zM288 58.37h288V1040H288zM576 58.37h288V1040H576zM864 58.37h288V1040H864zM1152 58.37h288V1040h-288z" fill="#f2f2f2"/><path d="M0 0h1440v1040H0z" stroke="#3d4752" stroke-width="2" fill="none"/><path d="M0 0h288v58.37H0zM288 0h288v58.37H288zM576 0h288v58.37H576zM864 0h288v58.37H864zM1152 0h288v58.37h-288zM0 58.37h288V1040H0zM288 58.37h288V1040H288zM576 58.37h288V1040H576zM864 58.37h288V1040H864zM1152 58.37h288V1040h-288z" stroke="#3d4752" stroke-width="2" fill="none"/><use xlink:href="#a" transform="matrix(1,0,0,1,5,5) translate(83.42274305555554 33.120876736111114)"/><use xlink:href="#b" transform="matrix(1,0,0,1,293,5) translate(100.50173611111111 33.120876736111114)"/><use xlink:href="#c" transform="matrix(1,0,0,1,581,5) translate(91.40342881944444 33.120876736111114)"/><use xlink:href="#d" transform="matrix(1,0,0,1,5,63.36734693877552) translate(139 491.4)"/><use xlink:href="#d" transform="matrix(1,0,0,1,293,63.36734693877552) translate(139 491.4)"/><use xlink:href="#d" transform="matrix(1,0,0,1,581,63.36734693877552) translate(139 491.4)"/><use xlink:href="#e" transform="matrix(1,0,0,1,869,5) translate(89.08680555555554 33.120876736111114)"/><use xlink:href="#f" transform="matrix(1,0,0,1,1157,5) translate(74.04774305555554 33.120876736111114)"/><use xlink:href="#d" transform="matrix(1,0,0,1,869,63.36734693877552) translate(139 491.4)"/><use xlink:href="#d" transform="matrix(1,0,0,1,1157,63.36734693877552) translate(139 491.4)"/><path d="M505.6 206.8h110.64v125.5h51.88" stroke="#3d4752" stroke-width="2" fill="none"/><path d="M505.6 207.8h-.42l.4-1zM668.12 332.3l-14.26 4.63v-9.27z" fill="#3d4752"/><path d="M668.12 331.25v2.1l-15.26 4.96v-12zm-13.26 4.3l10.03-3.25-10.04-3.26z" fill="#3d4752"/><path d="M504.2 376.2h112.04v143.85h51.88" stroke="#3d4752" stroke-width="2" fill="none"/><path d="M504.2 377.2h-.42l.4-1zM668.12 520.05l-14.26 4.64v-9.28z" fill="#3d4752"/><path d="M668.12 519v2.1l-15.26 4.97v-12.03zm-13.26 4.3l10.03-3.25-10.04-3.25z" fill="#3d4752"/><path d="M504.2 638.48h112.04V520.05h51.88" stroke="#3d4752" stroke-width="2" fill="none"/><path d="M504.2 639.48h-.4l.4-1zM668.12 520.05l-14.26 4.64v-9.28z" fill="#3d4752"/><path d="M668.12 519v2.1l-15.26 4.97v-12.03zm-13.26 4.3l10.03-3.25-10.04-3.25z" fill="#3d4752"/><path d="M459.74 894.5h72.66V708.06h135.72" stroke="#3d4752" stroke-width="2" fill="none"/><path d="M459.74 894.5l-.55-1h.54zM668.12 708.06l-14.26 4.64v-9.27z" fill="#3d4752"/><path d="M668.12 707v2.12l-15.26 4.96v-12.03zm-13.26 4.32l10.03-3.26-10.04-3.25z" fill="#3d4752"/><path d="M193.54 772.68h55.9v-134.2h82.02" stroke="#3d4752" stroke-width="2" fill="none"/><path d="M193.54 773.68h-.06l.06-1-.04-1h.04zM331.46 638.48l-14.26 4.63v-9.26z" fill="#3d4752"/><path d="M331.84 637.55l-.87 2.14-14.77 4.8v-12.03zm-13.64 4.2l10.03-3.27-10.03-3.26z" fill="#3d4752"/><path d="M193.54 772.68h55.9V894.5H375.9" stroke="#3d4752" stroke-width="2" fill="none"/><path d="M193.54 773.68h-.06l.06-1-.04-1h.04zM375.9 894.5l-14.27 4.64v-9.27z" fill="#3d4752"/><path d="M376.4 893.6l-1.2 2.18-14.57 4.73v-12zm-13.77 4.16l10.03-3.26-10.03-3.26z" fill="#3d4752"/><path d="M193.54 292.17h55.9v84.03h82" stroke="#3d4752" stroke-width="2" fill="none"/><path d="M193.54 293.17h-.06l.06-1-.04-1h.04zM331.44 376.2l-14.26 4.64v-9.28z" fill="#3d4752"/><path d="M331.82 375.27l-.87 2.14-14.77 4.8v-12zm-13.64 4.2l10.03-3.27-10.02-3.26z" fill="#3d4752"/><path d="M193.54 292.17h55.9V206.8h83.4" stroke="#3d4752" stroke-width="2" fill="none"/><path d="M193.54 293.17h-.06l.06-1-.04-1h.04zM332.84 206.8l-14.27 4.62v-9.27z" fill="#3d4752"/><path d="M333.22 205.86l-.88 2.14-14.77 4.8v-12.02zm-13.65 4.2l10.03-3.27-10.03-3.27z" fill="#3d4752"/><path d="M733.62 202.34v82.5" stroke="#3d4752" stroke-width="2" fill="none"/><path d="M733.62 284.85L729 270.6h9.26z" fill="#3d4752"/><path d="M734.68 284.85h-2.1l-4.97-15.26h12.04zm-4.3-13.26l3.24 10.02 3.26-10.03z" fill="#3d4752"/><path d="M733.62 379.74v92.87" stroke="#3d4752" stroke-width="2" fill="none"/><path d="M733.62 472.6L729 458.35h9.26z" fill="#3d4752"/><path d="M734.68 472.6h-2.1l-4.97-15.26h12.04zm-4.3-13.26l3.24 10.03 3.26-10.03z" fill="#3d4752"/><path d="M733.62 567.5v93.12" stroke="#3d4752" stroke-width="2" fill="none"/><path d="M733.62 660.62L729 646.35h9.26z" fill="#3d4752"/><path d="M734.68 660.62h-2.1l-4.97-15.27h12.04zm-4.3-13.27l3.24 10.03 3.26-10.03z" fill="#3d4752"/><path d="M733.62 755.5v47.6h.53v47.57" stroke="#3d4752" stroke-width="2" fill="none"/><path d="M734.15 850.67l-4.64-14.26h9.28z" fill="#3d4752"/><path d="M735.2 850.67h-2.1l-4.96-15.26h12.02zm-4.3-13.26l3.25 10.03 3.26-10.02z" fill="#3d4752"/><path d="M799.13 708.06h144.7" stroke="#3d4752" stroke-width="2" fill="none"/><path d="M943.84 708.06l-14.26 4.64v-9.27z" fill="#3d4752"/><path d="M944.22 707.14l-.87 2.14-14.77 4.8v-12.03zm-13.64 4.18l10.03-3.26-10.02-3.25z" fill="#3d4752"/><path d="M799.13 332.3h144.73" stroke="#3d4752" stroke-width="2" fill="none"/><path d="M943.86 332.3l-14.26 4.63v-9.27z" fill="#3d4752"/><path d="M944.24 331.37l-.87 2.14-14.77 4.8v-12zm-13.64 4.2l10.03-3.27-10.03-3.26z" fill="#3d4752"/><path d="M804.9 894.05h183.4" stroke="#3d4752" stroke-width="2" fill="none"/><path d="M804.9 895.05h-.07l.06-1-.05-1h.04zM988.3 894.05l-14.27 4.63v-9.27z" fill="#3d4752"/><path d="M988.8 893.16l-1.2 2.17-14.57 4.73v-12.02zm-13.77 4.15l10.03-3.25-10.03-3.26z" fill="#3d4752"/><path d="M1072.14 894.05h165.6" stroke="#3d4752" stroke-width="2" fill="none"/><path d="M1072.14 894.05l-.55-1h.54zM1237.73 894.05l-14.27 4.63v-9.27z" fill="#3d4752"/><path d="M1237.8 893.02l-.07 1.03.04 1.04-15.3 4.96v-12.02zm-13.34 4.3l10.03-3.27-10.04-3.26z" fill="#3d4752"/><path d="M1116.6 708.06h191.87v142.6" stroke="#3d4752" stroke-width="2" fill="none"/><path d="M1116.6 709.06h-.4l.4-1zM1308.47 850.67l-4.63-14.26h9.27z" fill="#3d4752"/><path d="M1309.52 850.67h-2.1l-4.96-15.26h12.02zm-4.3-13.26l3.25 10.03 3.26-10.02z" fill="#3d4752"/><path d="M1307.7 408.2v90.38" stroke="#3d4752" stroke-width="2" fill="none"/><path d="M1307.7 408.2h-1v-.03zm1 0h-1l1-.02zM1307.7 498.58l-4.65-14.26h9.27z" fill="#3d4752"/><path d="M1308.74 498.58h-2.1l-4.97-15.26h12.03zm-4.3-13.26l3.25 10.03 3.24-10.03z" fill="#3d4752"/><path d="M1307.7 256.4v-53.7" stroke="#3d4752" stroke-width="2" fill="none"/><path d="M1308.7 256.42l-1-.03h-1 2zM1312.32 216.97h-9.27l4.64-14.27z" fill="#3d4752"/><path d="M1313.7 217.97h-12.03l4.96-15.27h2.1zm-9.27-2h6.5l-3.24-10.03z" fill="#3d4752"/><path d="M1116.62 332.3h128.18" stroke="#3d4752" stroke-width="2" fill="none"/><path d="M1116.62 333.3h-.4l.4-1zM1244.8 332.3l-14.26 4.63v-9.27z" fill="#3d4752"/><path d="M1244.8 331.25v2.1l-15.26 4.96v-12zm-13.26 4.3l10.03-3.25-10.03-3.26z" fill="#3d4752"/><path d="M1116.6 708.06h73.4v-166.1h46.94" stroke="#3d4752" stroke-width="2" fill="none"/><path d="M1116.6 709.06h-.4l.4-1zM1236.94 541.96l-14.26 4.64v-9.27z" fill="#3d4752"/><path d="M1237 540.93l-.06 1.03.04 1.04-15.3 4.97v-12.02zm-13.32 4.3l10.03-3.27-10.02-3.26z" fill="#3d4752"/><path d="M165.24 248.8c15.63 0 28.3 19.42 28.3 43.37 0 23.96-12.67 43.38-28.3 43.38h-84.9c-15.62 0-28.3-19.42-28.3-43.38 0-23.95 12.68-43.38 28.3-43.38z" stroke="#3d4752" stroke-width="2" fill="#fff"/><use xlink:href="#g" transform="matrix(1,0,0,1,52.052401746724996,248.79388251651392) translate(28.74658203125 50.48291015625)"/><use xlink:href="#h" transform="matrix(1,0,0,1,52.052401746724996,248.79388251651392) translate(102.96142578125 50.48291015625)"/><path d="M165.24 729.3c15.63 0 28.3 19.42 28.3 43.38s-12.67 43.38-28.3 43.38h-84.9c-15.62 0-28.3-19.42-28.3-43.38s12.68-43.38 28.3-43.38z" stroke="#3d4752" stroke-width="2" fill="#fff"/><use xlink:href="#g" transform="matrix(1,0,0,1,52.052401746724996,729.3013555787272) translate(28.74658203125 50.48291015625)"/><use xlink:href="#i" transform="matrix(1,0,0,1,52.052401746724996,729.3013555787272) translate(102.96142578125 50.48291015625)"/><path d="M352.54 158.53c1.05-2.55 4.13-4.63 6.9-4.63h162.74c2.76 0 4.16 2.08 3.1 4.63l-39.4 96.52c-1.04 2.55-4.12 4.62-6.88 4.62H316.24c-2.76 0-4.15-2.07-3.1-4.62z" stroke="#3d4752" stroke-width="2" fill="#fff"/><use xlink:href="#g" transform="matrix(1,0,0,1,311.24454148471966,153.90337156760876) translate(75.25158203125 35.8017578125)"/><use xlink:href="#j" transform="matrix(1,0,0,1,311.24454148471966,153.90337156760876) translate(149.46642578125 35.8017578125)"/><use xlink:href="#k" transform="matrix(1,0,0,1,311.24454148471966,153.90337156760876) translate(88.801875 60.314453125)"/><use xlink:href="#l" transform="matrix(1,0,0,1,311.24454148471966,153.90337156760876) translate(55.474726562499995 84.8271484375)"/><use xlink:href="#m" transform="matrix(1,0,0,1,311.24454148471966,153.90337156760876) translate(129.1446484375 84.8271484375)"/><path d="M351.14 327.94c1.05-2.55 4.13-4.63 6.9-4.63h162.75c2.75 0 4.14 2.1 3.1 4.64l-39.4 96.52c-1.06 2.55-4.14 4.63-6.9 4.63H314.85c-2.76 0-4.16-2.1-3.1-4.64z" stroke="#3d4752" stroke-width="2" fill="#fff"/><use xlink:href="#g" transform="matrix(1,0,0,1,309.8471615720455,323.3145637817207) translate(75.25158203125 35.8017578125)"/><use xlink:href="#j" transform="matrix(1,0,0,1,309.8471615720455,323.3145637817207) translate(149.46642578125 35.8017578125)"/><use xlink:href="#k" transform="matrix(1,0,0,1,309.8471615720455,323.3145637817207) translate(88.801875 60.314453125)"/><use xlink:href="#l" transform="matrix(1,0,0,1,309.8471615720455,323.3145637817207) translate(55.338496093749995 84.8271484375)"/><use xlink:href="#n" transform="matrix(1,0,0,1,309.8471615720455,323.3145637817207) translate(129.00841796875 84.8271484375)"/><path d="M668.12 289.85c0-2.76 2.24-5 5-5h121c2.77 0 5 2.24 5 5v84.9c0 2.75-2.23 5-5 5h-121c-2.76 0-5-2.25-5-5z" stroke="#3d4752" stroke-width="2" fill="#fff"/><use xlink:href="#o" transform="matrix(1,0,0,1,668.1222707423582,284.85227667709773) translate(39.8349609375 54.48291015625)"/><use xlink:href="#h" transform="matrix(1,0,0,1,668.1222707423582,284.85227667709773) translate(81.873046875 54.48291015625)"/><path d="M668.12 477.6c0-2.75 2.24-5 5-5h121c2.77 0 5 2.25 5 5v84.9c0 2.76-2.23 5-5 5h-121c-2.76 0-5-2.24-5-5z" stroke="#3d4752" stroke-width="2" fill="#fff"/><use xlink:href="#o" transform="matrix(1,0,0,1,668.1222707423582,472.60896767466477) translate(39.8349609375 54.48291015625)"/><use xlink:href="#i" transform="matrix(1,0,0,1,668.1222707423582,472.60896767466477) translate(81.873046875 54.48291015625)"/><path d="M776.07 115.6c15.63 0 28.3 19.4 28.3 43.36s-12.67 43.38-28.3 43.38h-84.9c-15.62 0-28.3-19.42-28.3-43.38 0-23.95 12.68-43.37 28.3-43.37z" stroke="#3d4752" stroke-width="2" fill="#d6d6d6"/><use xlink:href="#p" transform="matrix(1,0,0,1,662.8820960698691,115.58567952728175) translate(38.73095703125 38.2265625)"/><use xlink:href="#q" transform="matrix(1,0,0,1,662.8820960698691,115.58567952728175) translate(51.6728515625 62.7392578125)"/><path d="M668.12 665.62c0-2.76 2.24-5 5-5h121c2.77 0 5 2.24 5 5v84.9c0 2.75-2.23 5-5 5h-121c-2.76 0-5-2.25-5-5z" stroke="#3d4752" stroke-width="2" fill="#fff"/><use xlink:href="#o" transform="matrix(1,0,0,1,668.1222707423582,660.618700034762) translate(39.8349609375 54.48291015625)"/><use xlink:href="#r" transform="matrix(1,0,0,1,668.1222707423582,660.618700034762) translate(81.873046875 54.48291015625)"/><path d="M776.6 850.67c15.62 0 28.3 19.42 28.3 43.38s-12.68 43.38-28.3 43.38h-84.9c-15.62 0-28.3-19.42-28.3-43.38s12.68-43.38 28.3-43.38z" stroke="#3d4752" stroke-width="2" fill="#d6d6d6"/><use xlink:href="#p" transform="matrix(1,0,0,1,663.4061135371179,850.6708376781334) translate(38.73095703125 38.2265625)"/><use xlink:href="#s" transform="matrix(1,0,0,1,663.4061135371179,850.6708376781334) translate(54.91162109375 62.7392578125)"/><path d="M336.4 966.04c-1.34 2.4-.2 4.37 2.57 4.37h157.7c2.75 0 3.9-1.95 2.57-4.36l-79-143.07c-1.34-2.42-3.5-2.42-4.84 0z" stroke="#3d4752" stroke-width="2" fill="#fcd1a5"/><use xlink:href="#t" transform="matrix(1,0,0,1,333.9737991266377,818.5888077858881) translate(84 46.2138671875)"/><use xlink:href="#u" transform="matrix(1,0,0,1,333.9737991266377,818.5888077858881) translate(84 70.7265625)"/><use xlink:href="#v" transform="matrix(1,0,0,1,333.9737991266377,818.5888077858881) translate(49.41064453125 95.2392578125)"/><use xlink:href="#w" transform="matrix(1,0,0,1,333.9737991266377,818.5888077858881) translate(44.29541015625 119.751953125)"/><path d="M963.57 284.04c1.04-2.56 4.13-4.63 6.9-4.63h162.74c2.77 0 4.16 2.08 3.12 4.64l-39.4 96.5c-1.05 2.57-4.14 4.64-6.9 4.64H927.27c-2.76 0-4.15-2.07-3.1-4.63z" stroke="#3d4752" stroke-width="2" fill="#fff"/><g><use xlink:href="#o" transform="matrix(1,0,0,1,922.2707423580787,279.41188738269386) translate(91.3399609375 35.8017578125)"/><use xlink:href="#j" transform="matrix(1,0,0,1,922.2707423580787,279.41188738269386) translate(133.378046875 35.8017578125)"/><use xlink:href="#k" transform="matrix(1,0,0,1,922.2707423580787,279.41188738269386) translate(88.801875 60.314453125)"/><use xlink:href="#l" transform="matrix(1,0,0,1,922.2707423580787,279.41188738269386) translate(55.474726562499995 84.8271484375)"/><use xlink:href="#m" transform="matrix(1,0,0,1,922.2707423580787,279.41188738269386) translate(129.1446484375 84.8271484375)"/></g><path d="M963.55 659.8c1.04-2.55 4.13-4.62 6.9-4.62h162.74c2.75 0 4.14 2.07 3.1 4.63l-39.4 96.52c-1.05 2.56-4.14 4.63-6.9 4.63H927.25c-2.76 0-4.15-2.07-3.1-4.63z" stroke="#3d4752" stroke-width="2" fill="#fff"/><g><use xlink:href="#o" transform="matrix(1,0,0,1,922.2489082969782,655.1783107403581) translate(91.3399609375 35.8017578125)"/><use xlink:href="#x" transform="matrix(1,0,0,1,922.2489082969782,655.1783107403581) translate(133.378046875 35.8017578125)"/><use xlink:href="#k" transform="matrix(1,0,0,1,922.2489082969782,655.1783107403581) translate(88.801875 60.314453125)"/><use xlink:href="#l" transform="matrix(1,0,0,1,922.2489082969782,655.1783107403581) translate(55.474726562499995 84.8271484375)"/><use xlink:href="#m" transform="matrix(1,0,0,1,922.2489082969782,655.1783107403581) translate(129.1446484375 84.8271484375)"/></g><path d="M351.17 590.22c1.04-2.56 4.13-4.63 6.9-4.63H520.8c2.77 0 4.16 2.06 3.12 4.62l-39.4 96.5c-1.05 2.57-4.14 4.64-6.9 4.64H314.87c-2.76 0-4.15-2.07-3.1-4.63z" stroke="#3d4752" stroke-width="2" fill="#fff"/><g><use xlink:href="#g" transform="matrix(1,0,0,1,309.86899563318775,585.5919360444944) translate(75.25158203125 35.8017578125)"/><use xlink:href="#y" transform="matrix(1,0,0,1,309.86899563318775,585.5919360444944) translate(149.46642578125 35.8017578125)"/><use xlink:href="#k" transform="matrix(1,0,0,1,309.86899563318775,585.5919360444944) translate(88.801875 60.314453125)"/><use xlink:href="#l" transform="matrix(1,0,0,1,309.86899563318775,585.5919360444944) translate(55.474726562499995 84.8271484375)"/><use xlink:href="#m" transform="matrix(1,0,0,1,309.86899563318775,585.5919360444944) translate(129.1446484375 84.8271484375)"/></g><path d="M1350.13 115.95c15.63 0 28.3 19.42 28.3 43.38 0 23.95-12.67 43.37-28.3 43.37h-84.9c-15.62 0-28.3-19.42-28.3-43.37 0-23.96 12.68-43.38 28.3-43.38z" stroke="#3d4752" stroke-width="2" fill="#fff"/><g><use xlink:href="#g" transform="matrix(1,0,0,1,1236.943231441048,115.94716718804669) translate(28.74658203125 50.48291015625)"/><use xlink:href="#h" transform="matrix(1,0,0,1,1236.943231441048,115.94716718804669) translate(102.96142578125 50.48291015625)"/></g><path d="M1350.13 498.58c15.63 0 28.3 19.42 28.3 43.38s-12.67 43.38-28.3 43.38h-84.9c-15.62 0-28.3-19.42-28.3-43.38s12.68-43.38 28.3-43.38z" stroke="#3d4752" stroke-width="2" fill="#fff"/><g><use xlink:href="#g" transform="matrix(1,0,0,1,1236.943231441048,498.5818561001061) translate(28.74658203125 50.48291015625)"/><use xlink:href="#i" transform="matrix(1,0,0,1,1236.943231441048,498.5818561001061) translate(102.96142578125 50.48291015625)"/></g><path d="M1350.92 850.67c15.63 0 28.3 19.42 28.3 43.38s-12.67 43.38-28.3 43.38h-84.9c-15.62 0-28.3-19.42-28.3-43.38s12.68-43.38 28.3-43.38z" stroke="#3d4752" stroke-width="2" fill="#fff"/><g><use xlink:href="#g" transform="matrix(1,0,0,1,1237.7292576419213,850.6708376781334) translate(28.74658203125 50.48291015625)"/><use xlink:href="#r" transform="matrix(1,0,0,1,1237.7292576419213,850.6708376781334) translate(102.96142578125 50.48291015625)"/></g><path d="M1370.57 393.03c0 8.38-28.16 15.18-62.88 15.18-34.74 0-62.9-6.8-62.9-15.17V271.57c0-8.4 28.16-15.18 62.9-15.18 34.7 0 62.87 6.78 62.87 15.17z" stroke="#3d4752" stroke-width="2" fill="#fcd1a5"/><path d="M1370.57 271.57c0 8.38-28.16 15.18-62.88 15.18-34.74 0-62.9-6.8-62.9-15.18" stroke="#3d4752" stroke-width="2" fill="none"/><g><use xlink:href="#z" transform="matrix(1,0,0,1,1244.8034934497816,286.7500868960759) translate(23.3876953125 67.98291015625)"/></g><path d="M948.8 965.58c-1.34 2.42-.2 4.38 2.58 4.38h157.68c2.76 0 3.92-1.96 2.58-4.38l-79-143.07c-1.34-2.4-3.5-2.4-4.84 0z" stroke="#3d4752" stroke-width="2" fill="#fcd1a5"/><g><use xlink:href="#t" transform="matrix(1,0,0,1,946.3755458515283,818.1369482099444) translate(84 46.2138671875)"/><use xlink:href="#u" transform="matrix(1,0,0,1,946.3755458515283,818.1369482099444) translate(84 70.7265625)"/><use xlink:href="#v" transform="matrix(1,0,0,1,946.3755458515283,818.1369482099444) translate(49.41064453125 95.2392578125)"/><use xlink:href="#w" transform="matrix(1,0,0,1,946.3755458515283,818.1369482099444) translate(44.29541015625 119.751953125)"/></g><defs><path fill="#3d4752" d="M584-1331c-162 0-287 69-287 219 0 118 43 164 123 214 44 28 112 56 203 89 153 55 259 113 317 176s86 144 86 244c-1 276-228 409-520 409-173 0-307-22-400-67v-164c109 46 257 81 406 82 199 1 342-68 342-244 0-120-47-164-132-214-47-28-121-58-218-93-136-49-234-106-292-173s-87-154-87-261c-1-239 209-369 463-369 145 0 279 27 401 80l-53 148c-121-51-238-76-352-76" id="A"/><path fill="#3d4752" d="M750-129c245 0 385-137 385-381v-952h170v946c3 336-225 536-566 536-344 0-553-202-553-540v-942h170v954c0 248 141 379 394 379" id="B"/><path fill="#3d4752" d="M1128-1036c0 321-241 464-585 461H371V0H201v-1462h379c365 0 548 142 548 426zm-176 8c0-218-150-286-391-287H371v594h153c270-3 428-62 428-307" id="C"/><path fill="#3d4752" d="M201 0v-1462h170v1308h645V0H201" id="D"/><path fill="#3d4752" d="M201 0v-1462h170V0H201" id="E"/><path fill="#3d4752" d="M1016 0H201v-1462h815v151H371v471h606v150H371v538h645V0" id="F"/><path fill="#3d4752" d="M602-1462c329 0 526 109 526 413 0 193-98 324-294 392L1231 0h-201L676-608H371V0H201v-1462h401zm350 422c0-215-129-271-360-273H371v559h233c223 0 348-78 348-286" id="G"/><g id="a"><use transform="matrix(0.010850694444444446,0,0,0.010850694444444446,0,0)" xlink:href="#A"/><use transform="matrix(0.010850694444444446,0,0,0.010850694444444446,12.196180555555557,0)" xlink:href="#B"/><use transform="matrix(0.010850694444444446,0,0,0.010850694444444446,28.374565972222225,0)" xlink:href="#C"/><use transform="matrix(0.010850694444444446,0,0,0.010850694444444446,41.75347222222223,0)" xlink:href="#C"/><use transform="matrix(0.010850694444444446,0,0,0.010850694444444446,55.13237847222223,0)" xlink:href="#D"/><use transform="matrix(0.010850694444444446,0,0,0.010850694444444446,66.66666666666667,0)" xlink:href="#E"/><use transform="matrix(0.010850694444444446,0,0,0.010850694444444446,72.86241319444446,0)" xlink:href="#F"/><use transform="matrix(0.010850694444444446,0,0,0.010850694444444446,85.22135416666669,0)" xlink:href="#G"/><use transform="matrix(0.010850694444444446,0,0,0.010850694444444446,98.95833333333337,0)" xlink:href="#A"/></g><path fill="#3d4752" d="M1198-240c-25-390-10-810-14-1222h159V0h-194L350-1227h-8c30 405 10 805 16 1227H201v-1462h192l797 1222h8" id="H"/><path fill="#3d4752" d="M651 0H481v-1311H18v-151h1096v151H651V0" id="I"/><g id="b"><use transform="matrix(0.010850694444444446,0,0,0.010850694444444446,0,0)" xlink:href="#E"/><use transform="matrix(0.010850694444444446,0,0,0.010850694444444446,6.195746527777779,0)" xlink:href="#H"/><use transform="matrix(0.010850694444444446,0,0,0.010850694444444446,22.949218750000004,0)" xlink:href="#C"/><use transform="matrix(0.010850694444444446,0,0,0.010850694444444446,36.32812500000001,0)" xlink:href="#B"/><use transform="matrix(0.010850694444444446,0,0,0.010850694444444446,52.50651041666667,0)" xlink:href="#I"/><use transform="matrix(0.010850694444444446,0,0,0.010850694444444446,64.80034722222223,0)" xlink:href="#A"/></g><path fill="#3d4752" d="M801-1485c433 0 669 306 669 752S1232 20 799 20c-445 0-674-297-674-755 0-456 232-750 676-750zm0 152c-345 0-496 236-496 600 0 367 148 604 494 604 348 0 491-235 491-604 0-366-143-600-489-600" id="J"/><path fill="#3d4752" d="M125-733c6-459 248-750 704-750 153 0 287 28 402 84l-72 146c-111-52-221-78-332-78-334-1-520 251-520 600 0 361 171 600 518 600 102 0 218-18 349-55v149C1073 1 948 20 799 20c-445 1-680-294-674-753" id="K"/><g id="c"><use transform="matrix(0.010850694444444446,0,0,0.010850694444444446,0,0)" xlink:href="#C"/><use transform="matrix(0.010850694444444446,0,0,0.010850694444444446,13.378906250000002,0)" xlink:href="#G"/><use transform="matrix(0.010850694444444446,0,0,0.010850694444444446,27.11588541666667,0)" xlink:href="#J"/><use transform="matrix(0.010850694444444446,0,0,0.010850694444444446,44.42274305555556,0)" xlink:href="#K"/><use transform="matrix(0.010850694444444446,0,0,0.010850694444444446,58.44184027777778,0)" xlink:href="#F"/><use transform="matrix(0.010850694444444446,0,0,0.010850694444444446,70.80078125,0)" xlink:href="#A"/><use transform="matrix(0.010850694444444446,0,0,0.010850694444444446,82.99696180555556,0)" xlink:href="#A"/></g><g id="e"><use transform="matrix(0.010850694444444446,0,0,0.010850694444444446,0,0)" xlink:href="#J"/><use transform="matrix(0.010850694444444446,0,0,0.010850694444444446,17.30685763888889,0)" xlink:href="#B"/><use transform="matrix(0.010850694444444446,0,0,0.010850694444444446,33.48524305555556,0)" xlink:href="#I"/><use transform="matrix(0.010850694444444446,0,0,0.010850694444444446,45.779079861111114,0)" xlink:href="#C"/><use transform="matrix(0.010850694444444446,0,0,0.010850694444444446,59.15798611111112,0)" xlink:href="#B"/><use transform="matrix(0.010850694444444446,0,0,0.010850694444444446,75.33637152777779,0)" xlink:href="#I"/><use transform="matrix(0.010850694444444446,0,0,0.010850694444444446,87.63020833333334,0)" xlink:href="#A"/></g><path fill="#3d4752" d="M848 0L352-1296h-8c27 395 8 875 14 1296H201v-1462h256L920-256h8l467-1206h254V0h-170c6-439-13-873 14-1294h-8L985 0H848" id="L"/><g id="f"><use transform="matrix(0.010850694444444446,0,0,0.010850694444444446,0,0)" xlink:href="#K"/><use transform="matrix(0.010850694444444446,0,0,0.010850694444444446,14.019097222222223,0)" xlink:href="#B"/><use transform="matrix(0.010850694444444446,0,0,0.010850694444444446,30.197482638888893,0)" xlink:href="#A"/><use transform="matrix(0.010850694444444446,0,0,0.010850694444444446,42.39366319444445,0)" xlink:href="#I"/><use transform="matrix(0.010850694444444446,0,0,0.010850694444444446,54.242621527777786,0)" xlink:href="#J"/><use transform="matrix(0.010850694444444446,0,0,0.010850694444444446,71.54947916666667,0)" xlink:href="#L"/><use transform="matrix(0.010850694444444446,0,0,0.010850694444444446,91.61241319444446,0)" xlink:href="#F"/><use transform="matrix(0.010850694444444446,0,0,0.010850694444444446,103.97135416666669,0)" xlink:href="#G"/><use transform="matrix(0.010850694444444446,0,0,0.010850694444444446,117.70833333333334,0)" xlink:href="#A"/></g><path fill="#3d4752" d="M563 20c-271 0-399-123-399-399v-717h168v711c1 177 76 266 252 266 250 0 331-135 331-401v-576h166V0H944l-24-147h-9C848-44 724 20 563 20" id="M"/><path fill="#3d4752" d="M1141-549c0 329-147 569-455 569-159 0-273-61-344-161h-12c23 199 7 418 12 633H176v-1588h135l23 150h8c77-108 175-170 344-170 311 0 455 237 455 567zm-172-2c0-242-88-424-307-424-256 0-323 154-320 426 3 280 68 430 324 430 213 0 303-196 303-432" id="N"/><path fill="#3d4752" d="M342 0H176v-1556h166V0" id="O"/><path fill="#3d4752" d="M342 0H176v-1096h166V0zm-82-1282c-61 0-98-43-98-111 0-69 36-110 98-110 59 0 98 43 98 110s-39 111-98 111" id="P"/><path fill="#3d4752" d="M995-51C878-2 799 19 639 20c-329 2-524-221-524-559 0-326 172-577 481-577 278 0 451 210 446 493v105H287c4 242 121 392 358 393 118 0 235-25 350-74v148zM864-653c2-195-85-324-270-324-190 0-288 139-303 324h573" id="Q"/><path fill="#3d4752" d="M340-893c80-153 237-262 467-211l-23 154c-45-10-85-15-120-15-184-3-322 182-322 377V0H176v-1096h137l19 203h8" id="R"/><g id="g"><use transform="matrix(0.0087890625,0,0,0.0087890625,0,0)" xlink:href="#A"/><use transform="matrix(0.0087890625,0,0,0.0087890625,9.87890625,0)" xlink:href="#M"/><use transform="matrix(0.0087890625,0,0,0.0087890625,20.9267578125,0)" xlink:href="#N"/><use transform="matrix(0.0087890625,0,0,0.0087890625,31.95703125,0)" xlink:href="#N"/><use transform="matrix(0.0087890625,0,0,0.0087890625,42.9873046875,0)" xlink:href="#O"/><use transform="matrix(0.0087890625,0,0,0.0087890625,47.5400390625,0)" xlink:href="#P"/><use transform="matrix(0.0087890625,0,0,0.0087890625,52.0927734375,0)" xlink:href="#Q"/><use transform="matrix(0.0087890625,0,0,0.0087890625,62.19140625,0)" xlink:href="#R"/></g><path fill="#3d4752" d="M715 0H553c4-427-9-874 8-1288-79 77-94 81-285 239l-88-114 387-299h140V0" id="S"/><use transform="matrix(0.0087890625,0,0,0.0087890625,0,0)" xlink:href="#S" id="h"/><path fill="#3d4752" d="M559-1483c258 0 441 142 440 389 0 93-26 184-78 275-109 192-433 475-612 657v8h752V0H100v-143c177-182 479-462 617-641 67-87 110-168 112-303 2-158-106-258-268-254-165 4-240 52-354 139l-88-113c135-112 281-168 440-168" id="T"/><use transform="matrix(0.0087890625,0,0,0.0087890625,0,0)" xlink:href="#T" id="i"/><use transform="matrix(0.0087890625,0,0,0.0087890625,0,0)" xlink:href="#S" id="j"/><path fill="#3d4752" d="M115-545c0-330 146-571 454-571 149 0 263 54 342 162h13c-20-185-8-401-11-602h166V0H944l-22-147h-9C836-36 722 20 569 20c-309 0-454-234-454-565zm172 2c0 249 78 424 303 424 257 0 327-150 323-426-4-282-68-432-325-432-220 0-301 191-301 434" id="U"/><path fill="#3d4752" d="M588-1114c260 0 384 106 385 366V0H850l-33-156h-8C708-34 639 17 442 20 231 23 94-94 94-303c0-221 177-337 531-348l186-6c11-203-40-320-233-320-91 0-195 28-310 84l-51-127c97-53 229-94 371-94zM268-301c-1 123 81 184 207 184 203 0 334-120 332-323v-99c-257 14-539-7-539 238" id="V"/><path fill="#3d4752" d="M354-322c-2 123 60 204 176 205 51 1 114-10 150-20v127C647 7 557 20 506 20 294 20 188-92 188-315v-652H31v-80l157-69 70-234h96v254h318v129H354v645" id="W"/><g id="k"><use transform="matrix(0.0087890625,0,0,0.0087890625,0,0)" xlink:href="#U"/><use transform="matrix(0.0087890625,0,0,0.0087890625,11.0302734375,0)" xlink:href="#V"/><use transform="matrix(0.0087890625,0,0,0.0087890625,21.041015625,0)" xlink:href="#W"/><use transform="matrix(0.0087890625,0,0,0.0087890625,27.3955078125,0)" xlink:href="#V"/></g><path fill="#3d4752" d="M1368-1116c259 2 372 131 371 401V0h-166v-713c0-168-66-262-230-262-221 0-303 131-303 363V0H874v-713c-1-169-66-262-231-262-235 0-301 142-301 400V0H176v-1096h135l27 150h8c56-99 174-170 324-170 171 0 283 62 336 186h8c60-108 189-187 354-186" id="X"/><path fill="#3d4752" d="M694-1116c270 0 399 125 398 401V0H926v-709c-1-177-76-266-252-266-250 0-332 133-332 400V0H176v-1096h135l27 150h8c62-101 190-170 348-170" id="Y"/><g id="l"><use transform="matrix(0.0087890625,0,0,0.0087890625,0,0)" xlink:href="#Q"/><use transform="matrix(0.0087890625,0,0,0.0087890625,10.0986328125,0)" xlink:href="#O"/><use transform="matrix(0.0087890625,0,0,0.0087890625,14.6513671875,0)" xlink:href="#Q"/><use transform="matrix(0.0087890625,0,0,0.0087890625,24.75,0)" xlink:href="#X"/><use transform="matrix(0.0087890625,0,0,0.0087890625,41.4931640625,0)" xlink:href="#Q"/><use transform="matrix(0.0087890625,0,0,0.0087890625,51.591796875,0)" xlink:href="#Y"/><use transform="matrix(0.0087890625,0,0,0.0087890625,62.6396484375,0)" xlink:href="#W"/></g><path fill="#3d4752" d="M1120 0L938-465H352L172 0H0l578-1468h143L1296 0h-176zM885-618c-81-228-168-420-238-664-57 230-159 449-235 664h473" id="Z"/><use transform="matrix(0.0087890625,0,0,0.0087890625,0,0)" xlink:href="#Z" id="m"/><path fill="#3d4752" d="M1214-416C1213-138 1004 0 711 0H201v-1462h413c194 0 334 29 421 87s130 150 130 275c0 188-114 295-284 324v10c222 38 333 155 333 350zm-225-667c0-194-147-232-368-232H371v479h280c219-3 338-46 338-247zm43 655c0-204-147-264-370-264H371v547h305c220-1 356-73 356-283" id="aa"/><use transform="matrix(0.0087890625,0,0,0.0087890625,0,0)" xlink:href="#aa" id="n"/><g id="o"><use transform="matrix(0.0087890625,0,0,0.0087890625,0,0)" xlink:href="#A"/><use transform="matrix(0.0087890625,0,0,0.0087890625,9.87890625,0)" xlink:href="#W"/><use transform="matrix(0.0087890625,0,0,0.0087890625,16.2333984375,0)" xlink:href="#Q"/><use transform="matrix(0.0087890625,0,0,0.0087890625,26.33203125,0)" xlink:href="#N"/></g><path fill="#3d4752" d="M621-1116c316 0 501 239 501 567 0 339-180 575-508 569S119-212 115-549c-4-339 178-567 506-567zm-5 141c-239 0-329 168-329 426 0 255 93 430 331 430s332-174 332-430-95-426-334-426" id="ab"/><path fill="#3d4752" d="M287-543c-1 247 91 418 323 418 91 0 185-20 281-59v147C818 1 725 20 614 20c-329 0-499-221-499-561 0-349 172-575 510-575 96 0 221 26 282 57l-51 141c-61-25-157-50-235-51-223 0-334 142-334 426" id="ac"/><path fill="#3d4752" d="M502-977c-130 0-238 32-238 139 0 75 39 101 95 134 33 19 97 46 192 81 130 48 217 95 263 143s69 108 69 181C883-73 695 20 449 20 304 20 190-3 109-49v-154c91 47 216 86 344 86 149 0 270-36 270-168 0-43-21-76-55-109-56-55-367-158-434-208-74-55-128-109-128-225 0-327 490-342 754-217l-59 135c-110-45-210-68-299-68" id="ad"/><g id="p"><use transform="matrix(0.0087890625,0,0,0.0087890625,0,0)" xlink:href="#C"/><use transform="matrix(0.0087890625,0,0,0.0087890625,10.8369140625,0)" xlink:href="#R"/><use transform="matrix(0.0087890625,0,0,0.0087890625,17.82421875,0)" xlink:href="#ab"/><use transform="matrix(0.0087890625,0,0,0.0087890625,28.6962890625,0)" xlink:href="#ac"/><use transform="matrix(0.0087890625,0,0,0.0087890625,37.265625,0)" xlink:href="#Q"/><use transform="matrix(0.0087890625,0,0,0.0087890625,47.3642578125,0)" xlink:href="#ad"/><use transform="matrix(0.0087890625,0,0,0.0087890625,55.951171875,0)" xlink:href="#ad"/></g><g id="q"><use transform="matrix(0.0087890625,0,0,0.0087890625,0,0)" xlink:href="#ad"/><use transform="matrix(0.0087890625,0,0,0.0087890625,8.5869140625,0)" xlink:href="#W"/><use transform="matrix(0.0087890625,0,0,0.0087890625,14.94140625,0)" xlink:href="#V"/><use transform="matrix(0.0087890625,0,0,0.0087890625,24.9521484375,0)" xlink:href="#R"/><use transform="matrix(0.0087890625,0,0,0.0087890625,32.2998046875,0)" xlink:href="#W"/></g><path fill="#3d4752" d="M557-1483c261-2 449 121 449 365 0 202-125 312-301 348v8c212 25 346 130 346 348 0 303-232 437-557 434C328 19 210-2 94-59v-158c108 55 257 96 406 96 253 0 379-99 379-297 0-177-139-266-418-266H317v-143h146c207 3 370-92 371-285 1-150-117-233-273-229-171 4-249 44-375 122l-84-112c109-87 268-150 455-152" id="ae"/><use transform="matrix(0.0087890625,0,0,0.0087890625,0,0)" xlink:href="#ae" id="r"/><g id="s"><use transform="matrix(0.0087890625,0,0,0.0087890625,0,0)" xlink:href="#Q"/><use transform="matrix(0.0087890625,0,0,0.0087890625,10.0986328125,0)" xlink:href="#Y"/><use transform="matrix(0.0087890625,0,0,0.0087890625,21.146484375,0)" xlink:href="#U"/></g><g id="v"><use transform="matrix(0.0087890625,0,0,0.0087890625,0,0)" xlink:href="#L"/><use transform="matrix(0.0087890625,0,0,0.0087890625,16.2509765625,0)" xlink:href="#V"/><use transform="matrix(0.0087890625,0,0,0.0087890625,26.26171875,0)" xlink:href="#W"/><use transform="matrix(0.0087890625,0,0,0.0087890625,32.6162109375,0)" xlink:href="#Q"/><use transform="matrix(0.0087890625,0,0,0.0087890625,42.71484375,0)" xlink:href="#R"/><use transform="matrix(0.0087890625,0,0,0.0087890625,50.0625,0)" xlink:href="#P"/><use transform="matrix(0.0087890625,0,0,0.0087890625,54.615234375,0)" xlink:href="#V"/><use transform="matrix(0.0087890625,0,0,0.0087890625,64.6259765625,0)" xlink:href="#O"/></g><path fill="#3d4752" d="M516-150c94-315 146-423 332-946h178L610 0H416L0-1096h178c98 281 253 670 330 946h8" id="af"/><path fill="#3d4752" d="M526-162c88-293 120-356 326-934h178L559 152c-47 123-102 209-163 262-93 80-237 94-380 61V342c184 39 305-9 367-180L444 6 2-1096h178c103 283 263 645 338 934h8" id="ag"/><g id="w"><use transform="matrix(0.0087890625,0,0,0.0087890625,0,0)" xlink:href="#P"/><use transform="matrix(0.0087890625,0,0,0.0087890625,4.552734375,0)" xlink:href="#Y"/><use transform="matrix(0.0087890625,0,0,0.0087890625,15.6005859375,0)" xlink:href="#af"/><use transform="matrix(0.0087890625,0,0,0.0087890625,24.6181640625,0)" xlink:href="#Q"/><use transform="matrix(0.0087890625,0,0,0.0087890625,34.716796875,0)" xlink:href="#Y"/><use transform="matrix(0.0087890625,0,0,0.0087890625,45.7646484375,0)" xlink:href="#W"/><use transform="matrix(0.0087890625,0,0,0.0087890625,52.119140625,0)" xlink:href="#ab"/><use transform="matrix(0.0087890625,0,0,0.0087890625,62.9912109375,0)" xlink:href="#R"/><use transform="matrix(0.0087890625,0,0,0.0087890625,70.3388671875,0)" xlink:href="#ag"/></g><use transform="matrix(0.0087890625,0,0,0.0087890625,0,0)" xlink:href="#ae" id="x"/><use transform="matrix(0.0087890625,0,0,0.0087890625,0,0)" xlink:href="#T" id="y"/><path fill="#3d4752" d="M649-1462c450-4 719 268 719 717 0 484-276 748-762 745H201v-1462h448zM578-147c400 1 610-197 610-592 1-379-192-576-570-576H371v1168h207" id="ah"/><path fill="#3d4752" d="M686 20c-159 0-273-61-344-161h-12L295 0H176v-1556h166c-2 198 6 423-8 606h8c77-109 192-164 344-164 310 0 455 234 455 565 0 329-147 569-455 569zm283-571c0-257-72-424-307-424-256 0-320 146-320 426s68 430 324 430c228 0 303-184 303-432" id="ai"/><g id="z"><use transform="matrix(0.0087890625,0,0,0.0087890625,0,0)" xlink:href="#ah"/><use transform="matrix(0.0087890625,0,0,0.0087890625,13.1220703125,0)" xlink:href="#V"/><use transform="matrix(0.0087890625,0,0,0.0087890625,23.1328125,0)" xlink:href="#W"/><use transform="matrix(0.0087890625,0,0,0.0087890625,29.4873046875,0)" xlink:href="#V"/><use transform="matrix(0.0087890625,0,0,0.0087890625,39.498046875,0)" xlink:href="#ai"/><use transform="matrix(0.0087890625,0,0,0.0087890625,50.5283203125,0)" xlink:href="#V"/><use transform="matrix(0.0087890625,0,0,0.0087890625,60.5390625,0)" xlink:href="#ad"/><use transform="matrix(0.0087890625,0,0,0.0087890625,69.1259765625,0)" xlink:href="#Q"/></g></defs></g></svg>